<svg width="11" height="14" viewBox="0 0 11 14" fill="none" xmlns="http://www.w3.org/2000/svg">
<path d="M5.33333 13.3333C3.78889 12.9444 2.51389 12.0583 1.50833 10.675C0.502778 9.29167 0 7.75556 0 6.06667V2L5.33333 0L10.6667 2V6.06667C10.6667 7.01111 10.5056 7.91944 10.1833 8.79167C9.86111 9.66389 9.4 10.4333 8.8 11.1L6.66667 8.96667C6.46667 9.08889 6.25278 9.18056 6.025 9.24167C5.79722 9.30278 5.56667 9.33333 5.33333 9.33333C4.6 9.33333 3.97222 9.07222 3.45 8.55C2.92778 8.02778 2.66667 7.4 2.66667 6.66667C2.66667 5.93333 2.92778 5.30556 3.45 4.78333C3.97222 4.26111 4.6 4 5.33333 4C6.06667 4 6.69444 4.26111 7.21667 4.78333C7.73889 5.30556 8 5.93333 8 6.66667C8 6.91111 7.96944 7.14722 7.90833 7.375C7.84722 7.60278 7.75556 7.82222 7.63333 8.03333L8.63333 9.03333C8.85556 8.57778 9.02778 8.1 9.15 7.6C9.27222 7.1 9.33333 6.58889 9.33333 6.06667V2.91667L5.33333 1.41667L1.33333 2.91667V6.06667C1.33333 7.41111 1.71111 8.63333 2.46667 9.73333C3.22222 10.8333 4.17778 11.5667 5.33333 11.9333C5.62222 11.8444 5.89722 11.7306 6.15833 11.5917C6.41944 11.4528 6.67778 11.2889 6.93333 11.1L7.86667 12.0333C7.5 12.3333 7.10278 12.5944 6.675 12.8167C6.24722 13.0389 5.8 13.2111 5.33333 13.3333ZM5.33333 8C5.7 8 6.01389 7.86944 6.275 7.60833C6.53611 7.34722 6.66667 7.03333 6.66667 6.66667C6.66667 6.3 6.53611 5.98611 6.275 5.725C6.01389 5.46389 5.7 5.33333 5.33333 5.33333C4.96667 5.33333 4.65278 5.46389 4.39167 5.725C4.13056 5.98611 4 6.3 4 6.66667C4 7.03333 4.13056 7.34722 4.39167 7.60833C4.65278 7.86944 4.96667 8 5.33333 8Z" fill="#2C2F30"/>
</svg>
